<svg version="1.2" xmlns="http://www.w3.org/2000/svg" viewBox="0 0 256 256" width="256" height="256"><style>.a{fill:#fc0}.b{fill:#cf9999}.c{fill:#bda8a8}.d{fill:#2c3827}</style><path class="a" d="m107 174.2l-15.2 57 57 15.2 15.2-57zm26.8 46.2l-16-4.2 4.2-16 16 4.4z"/><path fill-rule="evenodd" class="b" d="m164.9 236c-11 0-19.9-8.9-19.9-19.9 0-11 8.9-19.9 19.9-19.9 11 0 19.9 8.9 19.9 19.9 0 11-8.9 19.9-19.9 19.9z"/><path fill-rule="evenodd" class="b" d="m91.1 236c-11 0-19.9-8.9-19.9-19.9 0-11 8.9-19.9 19.9-19.9 11 0 19.9 8.9 19.9 19.9 0 11-8.9 19.9-19.9 19.9z"/><path fill-rule="evenodd" class="c" d="m204 53.8l-76 124.6-76-124.6z"/><path fill-rule="evenodd" class="b" d="m127.8 192.8c-7.5 0-13.6-6.1-13.6-13.6 0-7.5 6.1-13.6 13.6-13.6 7.5 0 13.6 6.1 13.6 13.6 0 7.5-6.1 13.6-13.6 13.6z"/><path fill-rule="evenodd" class="d" d="m162.9 130.4c-5.8 0-10.5-4.7-10.5-10.5 0-5.8 4.7-10.5 10.5-10.5 5.8 0 10.5 4.7 10.5 10.5 0 5.8-4.7 10.5-10.5 10.5z"/><path fill-rule="evenodd" class="d" d="m92.9 130.4c-5.8 0-10.5-4.7-10.5-10.5 0-5.8 4.7-10.5 10.5-10.5 5.8 0 10.5 4.7 10.5 10.5 0 5.8-4.7 10.5-10.5 10.5z"/><path fill-rule="evenodd" class="b" d="m198.3 85c-21 0-37.9-16.9-37.9-37.8 0-20.9 16.9-37.8 37.9-37.8 21 0 37.9 16.9 37.9 37.8 0 20.9-16.9 37.8-37.9 37.8z"/><path fill-rule="evenodd" class="b" d="m57.6 85c-20.9 0-37.8-16.9-37.8-37.8 0-20.9 16.9-37.8 37.8-37.8 20.9 0 37.8 16.9 37.8 37.8 0 20.9-16.9 37.8-37.8 37.8z"/></svg>